Coordinates
version=1
nRows=16
nColumns=42
inDegrees=yes

Units are S.I. units (second, meters, Newtons, ...)
If the header above contains a line with 'inDegrees', this indicates whether rotational values are in degrees (yes) or radians (no).

endheader
time	pelvis_tilt	pelvis_list	pelvis_rotation	pelvis_tx	pelvis_ty	pelvis_tz	hip_flexion_r	hip_adduction_r	hip_rotation_r	knee_angle_r	knee_adduction_r	knee_angle_r_beta	ankle_angle_r	subtalar_angle_r	mtp_angle_r	hip_flexion_l	hip_adduction_l	hip_rotation_l	knee_angle_l	knee_adduction_l	knee_angle_l_beta	ankle_angle_l	subtalar_angle_l	mtp_angle_l	lumbar_extension	lumbar_bending	lumbar_rotation	arm_flex_r	arm_add_r	arm_rot_r	elbow_flex_r	pro_sup_r	wrist_flex_r	wrist_dev_r	arm_flex_l	arm_add_l	arm_rot_l	elbow_flex_l	pro_sup_l	wrist_flex_l	wrist_dev_l
      0.00000000	      1.51128348	      1.08629833	     -0.66390919	     -2.10785231	      0.97098430	      0.26654099	     19.38141171	     -8.54237123	     -8.02273441	     40.08671184	      4.78574417	      0.69964511	     10.47258201	      5.17472378	     -9.44409642	     -1.24590485	      2.89883502	    -11.28597455	      8.95856119	     -1.70230944	      0.15635639	     12.00760436	     23.54557017	     -9.44409642	     -9.68118148	     -1.25157877	     -2.65380031	     -7.52434846	    -11.66586218	      7.40192686	     29.31557265	     90.00000001	      0.00000000	      0.00000000	     10.05039757	    -18.71556866	     22.87767966	     33.18784071	     90.00000001	      0.00000000	      0.00000000
      0.01000000	      1.39567788	      1.27299570	     -0.67729134	     -2.10261214	      0.97020716	      0.26654422	     19.98387262	     -8.74747634	     -8.52692893	     39.01343615	      4.68633387	      0.68091291	     10.49547973	      5.12272979	     -9.42707872	     -1.44054112	      3.10389319	    -11.46792603	      9.01010925	     -1.69255881	      0.15725607	     12.20319573	     23.40398760	     -9.42707872	     -9.53660951	     -1.38256580	     -2.57163009	     -7.83444792	    -11.62842495	      7.42458831	     29.22072695	     90.00000001	      0.00000000	      0.00000000	     10.44684990	    -18.72243819	     22.79681783	     33.56622211	     90.00000001	      0.00000000	      0.00000000
      0.02000000	      1.61165095	      1.14233410	     -0.46000076	     -2.09534032	      0.96983314	      0.26658854	     19.91380078	     -8.56127422	     -9.40230654	     36.99710376	      4.46404528	      0.64572127	     10.49943882	      5.65896673	     -9.37358110	     -2.23982511	      2.97349070	    -11.22945041	      8.85417996	     -1.72963284	      0.15453459	     12.86607756	     23.83457713	     -9.37358110	     -9.69349882	     -1.12314706	     -2.86608848	     -7.98237649	    -11.49743681	      7.29078254	     28.75516292	     90.00000001	      0.00000000	      0.00000000	     10.58791752	    -18.96934254	     22.76417217	     34.41447133	     90.00000001	      0.00000000	      0.00000000
      0.03000000	      1.47767320	      1.45754274	     -0.50144971	     -2.08738751	      0.96857360	      0.26665060	     20.66649712	     -8.86510510	    -10.18205362	     35.30361588	      4.25818445	      0.61616434	     10.47665661	      5.68648239	     -9.35722100	     -2.60777126	      3.33076005	    -11.49266996	      8.88762393	     -1.75334892	      0.15511830	     13.16284445	     23.69610313	     -9.35722100	     -9.48606896	     -1.35678918	     -2.71584350	     -8.44269376	    -11.42554514	      7.31116006	     28.58840228	     90.00000001	      0.00000000	      0.00000000	     11.12057119	    -18.98364026	     22.66145607	     34.96171358	     90.00000001	      0.00000000	      0.00000000
      0.04000000	      1.95745467	      1.17569528	     -0.20062278	     -2.07798501	      0.96819058	      0.26692635	     20.19719221	     -8.48410920	    -11.45418029	     32.51319216	      3.99244885	      0.56746225	     10.36890023	      7.06950852	     -9.28732321	     -3.85278357	      2.97686511	    -11.32137667	      8.69314591	     -1.75555659	      0.15172402	     13.97925696	     24.40499914	     -9.28732321	     -9.93764320	     -0.91392576	     -3.13677839	     -8.55184393	    -11.23751518	      6.99550290	     28.02334211	     90.00000001	      0.00000000	      0.00000000	     11.24884277	    -19.35318996	     22.68468688	     36.20168505	     90.00000001	      0.00000000	      0.00000000
      0.05000000	      2.10773311	      1.24904597	     -0.07562665	     -2.06831825	      0.96704898	      0.26717375	     20.33006650	     -8.49245518	    -12.49796070	     29.98261536	      3.82797838	      0.52329536	     10.24100478	      8.06991548	     -9.21467546	     -4.68109809	      3.02437190	    -11.43426665	      8.64436158	     -1.77505996	      0.15087257	     14.61055516	     24.81105648	     -9.21467546	    -10.02716427	     -0.85619694	     -3.28906985	     -8.83830290	    -11.08476178	      6.77692929	     27.61471200	     90.00000001	      0.00000000	      0.00000000	     11.55729084	    -19.57882527	     22.65823102	     37.21173336	     90.00000001	      0.00000000	      0.00000000
      0.06000000	      2.23823874	      1.34333658	      0.05266489	     -2.05839415	      0.96574572	      0.26749280	     20.42357423	     -8.51274461	    -13.41363016	     27.34190290	      3.77268097	      0.47720623	     10.05123332	      9.02976838	     -9.14806038	     -5.50310159	      3.09169338	    -11.49469723	      8.60212908	     -1.79549808	      0.15013548	     15.25465246	     25.13635320	     -9.14806038	    -10.10065067	     -0.81816898	     -3.47373086	     -9.08088651	    -10.93237567	      6.61963855	     27.16978879	     90.00000001	      0.00000000	      0.00000000	     11.80949130	    -19.82738486	     22.57425492	     38.31758597	     90.00000001	      0.00000000	      0.00000000
      0.07000000	      2.06784333	      1.68673508	      0.08709584	     -2.04862631	      0.96388112	      0.26775973	     20.94318114	     -8.79060523	    -13.99819678	     24.88798953	      3.80878312	      0.43437736	      9.76002290	      9.71936288	     -9.12606583	     -5.94382015	      3.53050001	    -11.52359968	      8.62110827	     -1.98529048	      0.15046672	     15.83294949	     25.15983212	     -9.12606583	     -9.86157841	     -1.04758489	     -3.59211011	     -9.38495137	    -10.83070109	      6.60751895	     26.90909864	     90.00000001	      0.00000000	      0.00000000	     12.09814829	    -20.01689786	     22.45733479	     39.19006561	     90.00000001	      0.00000000	      0.00000000
      0.08000000	      2.13509475	      1.78331848	      0.23444831	     -2.03865648	      0.96233312	      0.26809492	     20.92725051	     -8.85097117	    -14.57672618	     22.16869943	      4.02716465	      0.38691680	      9.46058181	     10.88199586	     -9.09782526	     -6.66230694	      3.61504595	    -11.33565753	      8.65777331	     -2.02833740	      0.15110665	     16.52351170	     25.34557273	     -9.09782526	     -9.90012803	     -0.99690868	     -3.82599610	     -9.53710097	    -10.71005151	      6.54685910	     26.40710652	     90.00000001	      0.00000000	      0.00000000	     12.21401207	    -20.29510975	     22.33140759	     40.48490421	     90.00000001	      0.00000000	      0.00000000
      0.09000000	      2.53546194	      1.59786599	      0.42677745	     -2.02830373	      0.96116859	      0.26888486	     20.48948845	     -8.50967685	    -15.64956447	     19.60956916	      3.90495010	      0.34225155	      9.28334799	     12.18745590	     -9.04545678	     -7.79550095	      3.27613561	    -11.30580770	      8.65032684	     -1.93866047	      0.15097668	     17.15559821	     25.54848605	     -9.04545678	    -10.27007773	     -0.66073707	     -4.07313089	     -9.64267523	    -10.53477797	      6.31249071	     25.90422957	     90.00000001	      0.00000000	      0.00000000	     12.27397572	    -20.58994143	     22.23172268	     41.76120448	     90.00000001	      0.00000000	      0.00000000
      0.10000000	      2.56820582	      1.65578928	      0.56586043	     -2.01837081	      0.95948741	      0.26941247	     20.51243247	     -8.49244802	    -16.31954752	     17.33827569	      3.96381235	      0.30261000	      9.02730954	     13.48557055	     -8.99163737	     -8.42659459	      3.30311225	    -11.16588239	      8.77072214	     -2.00404335	      0.15307798	     17.79297013	     25.59571426	     -8.99163737	    -10.27263654	     -0.56752952	     -4.28070046	     -9.80027539	    -10.41810395	      6.10644600	     25.56219791	     90.00000001	      0.00000000	      0.00000000	     12.34428204	    -20.80837704	     22.13815530	     42.85189411	     90.00000001	      0.00000000	      0.00000000
      0.11000000	      2.38094497	      1.85988121	      0.64279251	     -2.00871187	      0.95749560	      0.26981650	     20.82975410	     -8.66469613	    -16.63457943	     15.38927928	      4.12981139	      0.26859359	      8.75054299	     14.52093208	     -8.96935361	     -8.76699775	      3.56987525	    -10.96233703	      8.94778921	     -2.18732574	      0.15616838	     18.39593403	     25.54388844	     -8.96935361	    -10.05935347	     -0.62227626	     -4.42476872	     -9.98550562	    -10.35703046	      6.04272561	     25.34577924	     90.00000001	      0.00000000	      0.00000000	     12.41206165	    -20.95607065	     22.04791487	     43.81036281	     90.00000001	      0.00000000	      0.00000000
      0.12000000	      2.28425026	      1.94088418	      0.77009932	     -1.99888892	      0.95568155	      0.27032689	     20.96329277	     -8.69474395	    -16.98434942	     13.61840914	      4.24444075	      0.23768608	      8.51823894	     15.59748194	     -8.94997396	     -9.21769607	      3.65990140	    -10.76327794	      9.12579158	     -2.32983346	      0.15927511	     18.98489888	     25.46542605	     -8.94997396	     -9.93775886	     -0.54104841	     -4.62169543	    -10.12149991	    -10.30146361	      5.95022036	     25.06477884	     90.00000001	      0.00000000	      0.00000000	     12.36592073	    -21.14074510	     21.95398050	     44.85353732	     90.00000001	      0.00000000	      0.00000000
      0.13000000	      2.21057776	      1.95000381	      0.92349556	     -1.98900652	      0.95395126	      0.27083867	     21.03221722	     -8.66048469	    -17.29298110	     12.11150876	      4.34346820	      0.21138571	      8.31406305	     16.63682688	     -8.93277504	     -9.69228384	      3.64481658	    -10.55498084	      9.31228809	     -2.44406359	      0.16253009	     19.54149169	     25.38501801	     -8.93277504	     -9.84131625	     -0.36600388	     -4.84758379	    -10.22330248	    -10.26297374	      5.81382500	     24.81409451	     90.00000001	      0.00000000	      0.00000000	     12.24557375	    -21.28375733	     21.87562405	     45.88707732	     90.00000001	      0.00000000	      0.00000000
      0.14000000	      2.15240299	      1.90693011	      1.09777343	     -1.97904885	      0.95229202	      0.27140581	     21.06541977	     -8.57849374	    -17.55392508	     10.92053660	      4.41819764	      0.19059932	      8.14843618	     17.56126531	     -8.91713516	    -10.18592672	      3.53733208	    -10.33318118	      9.52055912	     -2.50890099	      0.16616510	     20.03551996	     25.32549627	     -8.91713516	     -9.76676306	     -0.13300842	     -5.05245442	    -10.33144027	    -10.23559447	      5.62763368	     24.57914791	     90.00000001	      0.00000000	      0.00000000	     12.09175824	    -21.40242277	     21.78967846	     46.89537919	     90.00000001	      0.00000000	      0.00000000
      0.15000000	      2.18219462	      1.75020016	      1.33837850	     -1.96893376	      0.95081134	      0.27213954	     20.97615899	     -8.36176098	    -17.92657283	     10.05292279	      4.39186391	      0.17545660	      8.01761600	     18.44950798	     -8.88922715	    -10.76396315	      3.21044828	    -10.12598564	      9.78312893	     -2.46775807	      0.17074781	     20.44968737	     25.26549783	     -8.88922715	     -9.78059323	      0.21915941	     -5.30474891	    -10.40098485	    -10.17596769	      5.24032685	     24.31465958	     90.00000001	      0.00000000	      0.00000000	     11.87311077	    -21.51554397	     21.66156979	     47.92804284	     90.00000001	      0.00000000	      0.00000000
